<?xml version="1.0" encoding="utf-8"?>
<!-- Generator: Adobe Illustrator 16.0.0, SVG Export Plug-In . SVG Version: 6.00 Build 0)  -->
<!DOCTYPE svg PUBLIC "-//W3C//DTD SVG 1.1//EN" "http://www.w3.org/Graphics/SVG/1.1/DTD/svg11.dtd">
<svg version="1.1" id="Layer_1" xmlns="http://www.w3.org/2000/svg" xmlns:xlink="http://www.w3.org/1999/xlink" x="0px" y="0px"
	 width="640px" height="480px" viewBox="0 0 640 480" enable-background="new 0 0 640 480" xml:space="preserve">
<g>
	<defs>
		<rect id="SVGID_1_" y="22" width="1052.354" height="632.859"/>
	</defs>
	<clipPath id="SVGID_2_">
		<use xlink:href="#SVGID_1_"  overflow="visible"/>
	</clipPath>
	<g clip-path="url(#SVGID_2_)">
		<rect x="65.095" y="36.465" fill="#FC6027" width="339.936" height="368.868"/>
		<path fill="#FFFFFF" d="M336.319,219.091l-143.75,89.257V129.833L336.319,219.091z"/>
		<path fill="#FFFFFF" d="M593.081,152.64c0.751-6.478,1.129-12.506,1.129-18.081c0-14.768-6.29-22.15-18.872-22.15h-8.251v24.297
			h-23.958v-24.297H444.81V79.635h98.319V61.44h23.958v18.195h9.494c14.162,0.15,25.053,4.597,32.659,13.335
			c7.686,8.739,11.527,21.096,11.527,37.067c0,11.377-1.205,29.835-3.616,55.375H444.81V152.64H593.081z M444.81,247.117v-32.773
			h122.277v32.773H444.81z M598.73,212.423c4.898,0,8.929,1.619,12.092,4.859c3.166,3.314,4.747,7.797,4.747,13.447
			c0,5.575-1.581,10.022-4.747,13.335c-3.163,3.314-7.193,4.974-12.092,4.974c-4.973,0-9.041-1.695-12.205-5.086
			c-3.164-3.315-4.747-7.722-4.747-13.223c0-5.5,1.583-9.944,4.747-13.334C589.689,214.081,593.758,212.423,598.73,212.423z
			 M530.585,320.687l36.502,20.568v34.921l-59.896-34.808l-62.382,36.276v-35.033l38.423-21.812l-38.423-21.697v-35.147
			l62.382,36.277l59.896-34.694v35.033L530.585,320.687z"/>
	</g>
</g>
</svg>
