<svg width="49" height="89" viewBox="0 0 49 89" fill="none" xmlns="http://www.w3.org/2000/svg">
<path d="M41 26.125C41.2083 24.3333 41.3125 22.6667 41.3125 21.125C41.3125 17.0417 39.5729 15 36.0938 15H33.8125V21.7188H27.1875V15L0 15V5.9375H27.1875V0.90625L33.8125 0.90625V5.9375H36.4375C40.3542 5.97917 43.3646 7.20833 45.4688 9.625C47.5938 12.0417 48.6562 15.4583 48.6562 19.875C48.6562 23.0208 48.3229 28.125 47.6562 35.1875H0V26.125H41ZM0 52.25V43.1875H33.8125V52.25H0ZM42.5625 42.6562C43.9167 42.6562 45.0312 43.1042 45.9062 44C46.7812 44.9167 47.2188 46.1562 47.2188 47.7188C47.2188 49.2604 46.7812 50.4896 45.9062 51.4062C45.0312 52.3229 43.9167 52.7812 42.5625 52.7812C41.1875 52.7812 40.0625 52.3125 39.1875 51.375C38.3125 50.4583 37.875 49.2396 37.875 47.7188C37.875 46.1979 38.3125 44.9688 39.1875 44.0312C40.0625 43.1146 41.1875 42.6562 42.5625 42.6562ZM23.7188 72.5938L33.8125 78.2812V87.9375L17.25 78.3125L0 88.3438V78.6562L10.625 72.625L0 66.625V56.9062L17.25 66.9375L33.8125 57.3438V67.0312L23.7188 72.5938Z" fill="white"/>
</svg>
